# xmcd
#
# Track frame offsets:
#	150
#	23179
#	39869
#	50798
#	69289
#	86317
#	108802
#	125001
#	148653
#	163727
#	177400
#	203323
#	217721
#	239604
#	265983
#
# Disc length: 3871 seconds
#
# Revision: 0
# Processed by: cddbd v1.5PL3 Copyright (c) Steve Scherf et al.
# Submitted via: EasyCDDAExtractor 4.6.9.1
#
DISCID=c90f1d0f
DTITLE=Véronique Sanson -  Zenith 93
DYEAR=1993
DGENRE=Live
TTITLE0=Y'a pas de doute
TTITLE1=L'irréparable
TTITLE2=Toi et moi
TTITLE3=Je suis la seule
TTITLE4=Le temps est assassin
TTITLE5=Seras-tu là
TTITLE6=Mariavah
TTITLE7=Tout est cassé
TTITLE8=Bahia
TTITLE9=Les délices d'hollywood
TTITLE10=Panne de coeur
TTITLE11=Bernard's song
TTITLE12=Rien que de l'eau
TTITLE13=On m'attend là-bas
TTITLE14=Vancouver
EXTD=
EXTT0=
EXTT1=
EXTT2=
EXTT3=
EXTT4=
EXTT5=
EXTT6=
EXTT7=
EXTT8=
EXTT9=
EXTT10=
EXTT11=
EXTT12=
EXTT13=
EXTT14=
PLAYORDER=
